<?xml version="1.0" encoding="utf-8"?>
<!-- Generator: Adobe Illustrator 16.0.0, SVG Export Plug-In . SVG Version: 6.00 Build 0)  -->
<!DOCTYPE svg PUBLIC "-//W3C//DTD SVG 1.1//EN" "http://www.w3.org/Graphics/SVG/1.1/DTD/svg11.dtd">
<svg version="1.1" id="Ebene_1" xmlns="http://www.w3.org/2000/svg" xmlns:xlink="http://www.w3.org/1999/xlink" x="0px" y="0px"
	 width="80px" height="80px" viewBox="0 0 80 80" enable-background="new 0 0 80 80" xml:space="preserve">
<g>
	<path fill="#FFFFFF" stroke="#B1B1B1" stroke-miterlimit="10" d="M29.778,29.434L9.049,50.162
		c-6.165,6.166-6.256,16.07-0.203,22.121c6.051,6.053,15.954,5.963,22.119-0.203l20.729-20.729L29.778,29.434z"/>
	<g>
		<path fill="#0DA59B" d="M51.48,52.342L72.553,31.27c6.268-6.268,6.268-16.428,0-22.695c-6.266-6.266-16.426-6.266-22.693,0
			L28.785,29.648L51.48,52.342z"/>
		<path fill="#99CCCC" d="M44.137,18.305l-5.688,5.688l-0.434,0.436l-5.688,5.687l6.59,6.589l5.688-5.688l0.434-0.433l5.688-5.688
			c1.818-1.819,1.82-4.77-0.002-6.591C48.904,16.486,45.955,16.488,44.137,18.305z"/>
	</g>
</g>
</svg>
