<?xml version="1.0" encoding="utf-8"?>
<!-- Generator: Adobe Illustrator 16.0.0, SVG Export Plug-In . SVG Version: 6.00 Build 0)  -->
<!DOCTYPE svg PUBLIC "-//W3C//DTD SVG 1.1//EN" "http://www.w3.org/Graphics/SVG/1.1/DTD/svg11.dtd">
<svg version="1.1" id="Ebene_1" xmlns="http://www.w3.org/2000/svg" xmlns:xlink="http://www.w3.org/1999/xlink" x="0px" y="0px"
	 width="99.21px" height="99.21px" viewBox="0 0 99.21 99.21" enable-background="new 0 0 99.21 99.21" xml:space="preserve">
<g>
	<g>
		<path fill="#FFFFFF" stroke="#B2B2B2" stroke-miterlimit="10" d="M34.281,35.5L6.949,62.832c-8.129,8.13-8.129,21.307,0,29.438
			c8.128,8.126,21.307,8.126,29.436,0l27.331-27.335L34.281,35.5z"/>
		<path fill="#00A7A9" d="M64.208,65.485l28.302-28.3c8.417-8.416,8.417-22.062,0-30.479c-8.416-8.416-22.06-8.416-30.478,0
			L33.731,35.008L64.208,65.485z"/>
	</g>
	<path fill="#9ACDCD" d="M54.347,19.773l-7.64,7.638l-0.582,0.586l-7.638,7.635l8.85,8.849l7.639-7.638l0.584-0.58l7.636-7.639
		c2.442-2.443,2.443-6.406-0.002-8.853C60.751,17.333,56.788,17.334,54.347,19.773z"/>
</g>
</svg>
